<?xml version="1.0" encoding="UTF-8"?>
<svg xmlns="http://www.w3.org/2000/svg" version="1.1" viewBox="0 0 400 150">
  <defs>
    <style>
      .cls-1, .cls-2, .cls-3, .cls-4, .cls-5, .cls-6, .cls-7, .cls-8 {
        stroke-width: 0px;
      }

      .cls-1, .cls-5 {
        fill-rule: evenodd;
      }

      .cls-1, .cls-7 {
        fill: #231f20;
      }

      .cls-2 {
        fill: #0079be;
      }

      .cls-3 {
        fill: #000;
      }

      .cls-4 {
        fill: #ec1c24;
      }

      .cls-5, .cls-6 {
        fill: #fff;
      }

      .cls-9 {
        display: none;
      }

      .cls-8 {
        fill: #211e1f;
      }
    </style>
  </defs>
  <g id="Boleto" class="cls-9">
    <polygon class="cls-1" points="72.3 10 86.2 10 86.2 139.7 72.3 139.7 72.3 10 72.3 10"/>
    <polygon class="cls-1" points="90.5 10 94.9 10 94.9 139.7 90.5 139.7 90.5 10 90.5 10"/>
    <polygon class="cls-1" points="98.6 10 106.3 10 106.3 139.7 98.6 139.7 98.6 10 98.6 10"/>
    <polygon class="cls-1" points="113.7 10 118 10 118 139.7 113.7 139.7 113.7 10 113.7 10"/>
    <polygon class="cls-1" points="119.9 10 123.2 10 123.2 139.7 119.9 139.7 119.9 10 119.9 10"/>
    <polygon class="cls-1" points="61.8 10 66.1 10 66.1 139.7 61.8 139.7 61.8 10 61.8 10"/>
    <polygon class="cls-1" points="52.3 10 60 10 60 139.7 52.3 139.7 52.3 10 52.3 10"/>
    <polygon class="cls-1" points="146.1 10 160 10 160 139.7 146.1 139.7 146.1 10 146.1 10"/>
    <polygon class="cls-1" points="164.3 10 168.6 10 168.6 139.7 164.3 139.7 164.3 10 164.3 10"/>
    <polygon class="cls-1" points="172.4 10 180.1 10 180.1 139.7 172.4 139.7 172.4 10 172.4 10"/>
    <polygon class="cls-1" points="187.5 10 191.7 10 191.7 139.7 187.5 139.7 187.5 10 187.5 10"/>
    <polygon class="cls-1" points="193.6 10 197 10 197 139.7 193.6 139.7 193.6 10 193.6 10"/>
    <polygon class="cls-1" points="135.6 10 139.9 10 139.9 139.7 135.6 139.7 135.6 10 135.6 10"/>
    <polygon class="cls-1" points="126.1 10 133.8 10 133.8 139.7 126.1 139.7 126.1 10 126.1 10"/>
    <polygon class="cls-1" points="202.4 10 210.1 10 210.1 139.7 202.4 139.7 202.4 10 202.4 10"/>
    <polygon class="cls-1" points="217.4 10 221.8 10 221.8 139.7 217.4 139.7 217.4 10 217.4 10"/>
    <polygon class="cls-1" points="223.6 10 226.9 10 226.9 139.7 223.6 139.7 223.6 10 223.6 10"/>
    <polygon class="cls-1" points="239.3 10 243.6 10 243.6 139.7 239.3 139.7 239.3 10 239.3 10"/>
    <polygon class="cls-1" points="229.9 10 237.6 10 237.6 139.7 229.9 139.7 229.9 10 229.9 10"/>
    <polygon class="cls-1" points="249.4 10 253.6 10 253.6 139.7 249.4 139.7 249.4 10 249.4 10"/>
    <polygon class="cls-1" points="255.5 10 258.8 10 258.8 139.7 255.5 139.7 255.5 10 255.5 10"/>
    <polygon class="cls-1" points="271.2 10 275.5 10 275.5 139.7 271.2 139.7 271.2 10 271.2 10"/>
    <polygon class="cls-1" points="261.7 10 269.4 10 269.4 139.7 261.7 139.7 261.7 10 261.7 10"/>
    <polygon class="cls-1" points="279.2 10 293.1 10 293.1 139.7 279.2 139.7 279.2 10 279.2 10"/>
    <polygon class="cls-1" points="297.5 10 301.8 10 301.8 139.7 297.5 139.7 297.5 10 297.5 10"/>
    <polygon class="cls-1" points="305.5 10 313.2 10 313.2 139.7 305.5 139.7 305.5 10 305.5 10"/>
    <polygon class="cls-1" points="320.6 10 324.9 10 324.9 139.7 320.6 139.7 320.6 10 320.6 10"/>
    <polygon class="cls-1" points="326.8 10 330.1 10 330.1 139.7 326.8 139.7 326.8 10 326.8 10"/>
    <polygon class="cls-1" points="335.5 10 343.2 10 343.2 139.7 335.5 139.7 335.5 10 335.5 10"/>
    <polygon class="cls-5" points="68 140 333.6 140 333.6 67.3 68 67.3 68 140 68 140"/>
    <path class="cls-7" d="M73,137.2v-65.8h24.7c5,0,9,.7,12.1,2,3,1.3,5.4,3.4,7.1,6.1,1.8,2.7,2.6,5.6,2.6,8.7s-.8,5.5-2.3,8c-1.5,2.5-3.8,4.5-6.9,6,4,1.2,7,3.1,9.2,6,2.2,2.8,3.2,6.1,3.2,10s-.7,5.9-2,8.6c-1.3,2.6-2.9,4.7-4.8,6.1s-4.3,2.5-7.2,3.3c-2.9.7-6.5,1.1-10.6,1.1h-25.1ZM81.8,99.1h14.2c3.9,0,6.6-.3,8.3-.8,2.2-.7,3.9-1.8,5-3.3s1.7-3.5,1.7-5.8-.5-4.1-1.6-5.8c-1-1.7-2.5-2.8-4.5-3.4-2-.6-5.3-.9-10-.9h-13.2v19.9h0ZM81.8,129.5h16.4c2.8,0,4.8-.1,5.9-.3,2-.4,3.7-.9,5-1.8s2.4-2.1,3.3-3.7,1.3-3.5,1.3-5.6-.6-4.6-1.9-6.4c-1.2-1.8-3-3.1-5.2-3.8s-5.4-1.1-9.6-1.1h-15.2v22.7h0Z"/>
    <path class="cls-7" d="M130.6,113.4c0-8.8,2.4-15.3,7.4-19.6,4.1-3.5,9.1-5.3,15-5.3s11.9,2.2,16.1,6.5c4.1,4.3,6.2,10.2,6.2,17.8s-.9,10.9-2.7,14.5c-1.9,3.5-4.5,6.2-8.1,8.2-3.5,2-7.3,2.9-11.5,2.9-6.7,0-12.1-2.1-16.2-6.4-4.1-4.3-6.2-10.4-6.2-18.4h0ZM138.9,113.4c0,6.1,1.3,10.6,4,13.7,2.7,3,6,4.5,10.1,4.5s7.3-1.5,10-4.5c2.7-3,4-7.7,4-13.9s-1.3-10.3-4-13.4-6-4.5-10-4.5-7.4,1.5-10.1,4.5c-2.7,3-4,7.6-4,13.6h0Z"/>
    <polygon class="cls-7" points="184.6 137.2 184.6 71.4 192.7 71.4 192.7 137.2 184.6 137.2 184.6 137.2"/>
    <path class="cls-7" d="M237.7,121.8l8.4,1.1c-1.3,4.9-3.7,8.6-7.3,11.3-3.6,2.7-8.1,4-13.6,4s-12.4-2.2-16.5-6.5-6.1-10.3-6.1-18,2.1-14.2,6.2-18.6,9.4-6.6,16.1-6.6,11.6,2.2,15.6,6.5c4,4.3,6,10.4,6,18.3s0,1.2,0,2.2h-35.5c.3,5.2,1.8,9.2,4.4,12,2.6,2.8,6,4.2,9.9,4.2s5.5-.8,7.6-2.3,3.8-4.1,5-7.5h-.1ZM211.3,108.8h26.5c-.4-4-1.4-7-3-9-2.6-3.1-5.9-4.6-10-4.6s-6.8,1.2-9.3,3.7c-2.5,2.5-3.9,5.8-4.2,10h0Z"/>
    <path class="cls-7" d="M273.8,130l1.1,7.1c-2.3.5-4.3.7-6.1.7-2.9,0-5.2-.5-6.8-1.4-1.6-.9-2.7-2.2-3.4-3.7-.7-1.5-1-4.7-1-9.6v-27.5h-6v-6.2h6v-11.8l8.1-4.9v16.6h8.1v6.2h-8.1v27.9c0,2.3.2,3.8.4,4.4.3.7.7,1.2,1.4,1.6.6.4,1.5.6,2.7.6s2.1-.1,3.5-.3h0Z"/>
    <path class="cls-7" d="M278.7,113.4c0-8.8,2.4-15.3,7.4-19.6,4.1-3.5,9.1-5.3,15-5.3s11.9,2.2,16.1,6.5c4.1,4.3,6.2,10.2,6.2,17.8s-.9,10.9-2.7,14.5c-1.9,3.5-4.5,6.2-8.1,8.2-3.5,2-7.3,2.9-11.5,2.9-6.7,0-12.1-2.1-16.2-6.4-4.1-4.3-6.2-10.4-6.2-18.4h0ZM287,113.4c0,6.1,1.3,10.6,4,13.7,2.7,3,6,4.5,10.1,4.5s7.3-1.5,10-4.5c2.7-3,4-7.7,4-13.9s-1.3-10.3-4-13.4-6-4.5-10-4.5-7.4,1.5-10.1,4.5c-2.7,3-4,7.6-4,13.6h0Z"/>
  </g>
  <g id="Layer_2" data-name="Layer 2" class="cls-9">
    <path class="cls-3" d="M104.5,31.8c-3.5,4.1-9.1,7.4-14.7,6.9-.7-5.6,2-11.5,5.2-15.2,3.5-4.3,9.6-7.3,14.6-7.5.6,5.8-1.7,11.5-5.1,15.8M109.6,39.9c-8.1-.5-15,4.6-18.9,4.6s-9.8-4.4-16.2-4.3c-8.3.1-16.1,4.8-20.4,12.4-8.7,15-2.3,37.3,6.2,49.6,4.1,6.1,9.1,12.7,15.6,12.5,6.2-.2,8.6-4,16.1-4s9.7,4,16.2,3.9c6.8-.1,11-6.1,15.2-12.1,4.7-6.9,6.6-13.6,6.8-13.9-.1-.1-13.1-5.1-13.2-20-.1-12.5,10.2-18.4,10.7-18.8-5.8-8.6-14.9-9.6-18.1-9.8M156.4,22.9v90.9h14.1v-31.1h19.5c17.8,0,30.4-12.2,30.4-30s-12.3-29.9-29.9-29.9h-34.1ZM170.6,34.8h16.3c12.2,0,19.2,6.5,19.2,18s-7,18.1-19.3,18.1h-16.2v-36.1ZM246.3,114.6c8.9,0,17.1-4.5,20.8-11.6h.3v10.9h13.1v-45.3c0-13.1-10.5-21.6-26.6-21.6s-26.1,8.6-26.5,20.4h12.7c1-5.6,6.2-9.3,13.4-9.3s13.5,4,13.5,11.4v5l-17.6,1c-16.4,1-25.3,7.7-25.3,19.4s9.2,19.6,22.3,19.6ZM250,103.8c-7.5,0-12.3-3.6-12.3-9.2s4.6-9,13.4-9.6l15.7-1v5.1c0,8.5-7.2,14.6-16.8,14.6ZM297.9,138.6c13.8,0,20.2-5.2,25.9-21.2l24.8-69.5h-14.3l-16.6,53.7h-.3l-16.6-53.7h-14.8l23.9,66.2-1.3,4c-2.2,6.8-5.7,9.4-11.9,9.4s-3.3-.1-4.1-.2v10.9c.8.2,4.3.3,5.4.3Z"/>
  </g>
  <g id="Layer_3" data-name="Layer 3" class="cls-9">
    <g id="_Layer_1" data-name=" #Layer_1">
      <path class="cls-2" d="M86.9,128.2c25.7.1,49.1-20.9,49.1-46.5s-23.4-47.4-49.1-47.4h-22.1c-26,0-47.3,19.4-47.3,47.4s21.4,46.7,47.3,46.5h22.1Z"/>
      <path class="cls-6" d="M64.9,38.2c-23.7,0-43,19.2-43,43,0,23.7,19.2,43,43,43,23.7,0,43-19.2,43-43,0-23.7-19.2-43-43-43ZM37.7,81.1h0c0-11.6,7.3-21.5,17.5-25.4v50.8c-10.2-3.9-17.5-13.8-17.5-25.4ZM74.7,106.6h0v-50.9c10.2,3.9,17.5,13.8,17.5,25.4,0,11.6-7.3,21.5-17.5,25.4Z"/>
      <path class="cls-8" d="M151,54.5c0-4.4-2.3-4.1-4.5-4.2v-1.3c1.9,0,3.9,0,5.8,0s4.9,0,8.5,0c12.8,0,19.7,8.5,19.7,17.3s-2.9,17.2-20.3,17.2-4.8,0-7.2,0-4.4,0-6.6,0v-1.3c3-.3,4.4-.4,4.5-3.8v-24h0ZM155.9,77.6h0c0,3.8,2.7,4.2,5.1,4.2,10.7,0,14.2-8.1,14.2-15.4s-5.9-15.9-15.5-15.9-3,.1-3.9.2v26.9h0Z"/>
      <path class="cls-8" d="M182.4,82.2h.9c1.4,0,2.4,0,2.4-1.6v-13.4c0-2.2-.7-2.5-2.6-3.5v-.8c2.3-.7,5.1-1.6,5.3-1.8.3-.2.6-.2.9-.2s.3.3.3.7v19c0,1.6,1.1,1.6,2.5,1.6h.8v1.3c-1.7,0-3.4,0-5.2,0s-3.6,0-5.4,0v-1.3h0ZM187.6,53.3h0c-1.3,0-2.4-1.2-2.4-2.5s1.2-2.4,2.4-2.4,2.4,1,2.4,2.4-1.1,2.5-2.4,2.5Z"/>
      <path class="cls-8" d="M197.6,67.5c0-1.8-.5-2.3-2.9-3.3v-.9c2.1-.7,4.1-1.3,6.5-2.4.1,0,.3.1.3.5v3.2c2.8-2,5.2-3.7,8.6-3.7s5.7,3.1,5.7,6.9v12.7c0,1.6,1.1,1.6,2.5,1.6h.9v1.3c-1.7,0-3.5,0-5.2,0s-3.6,0-5.3,0v-1.3h.9c1.4,0,2.4,0,2.4-1.6v-12.8c0-2.8-1.7-4.2-4.5-4.2s-4.1,1.3-5.7,2.4v14.6c0,1.6,1.1,1.6,2.5,1.6h.9v1.3c-1.7,0-3.5,0-5.2,0s-3.6,0-5.3,0v-1.3h.9c1.4,0,2.4,0,2.4-1.6v-13.1h0Z"/>
      <path class="cls-8" d="M222.9,69.8c-.1.4-.1,1.2,0,2.9.3,4.7,3.3,8.5,7.3,8.5s4.8-1.5,6.7-3.3l.7.7c-2.3,3-5.1,5.6-9.1,5.6-7.9,0-9.4-7.6-9.4-10.8,0-9.7,6.5-12.5,10-12.5s8.3,2.5,8.3,7.8c0,.3,0,.6,0,.9l-.4.3h-13.9ZM231.6,68.3h0c1.2,0,1.4-.6,1.4-1.2,0-2.5-1.5-4.5-4.3-4.5s-5.1,2.2-5.7,5.8h8.6Z"/>
      <path class="cls-8" d="M238.4,82.2h1.3c1.4,0,2.4,0,2.4-1.6v-13.9c0-1.5-1.8-1.8-2.6-2.2v-.7c3.6-1.5,5.6-2.8,6-2.8s.4.1.4.6v4.4h.1c1.2-1.9,3.3-5.1,6.3-5.1s2.8.8,2.8,2.6-.9,2.5-2.3,2.5-1.5-1.2-3.3-1.2-3.6,1.1-3.6,4.1v11.6c0,1.6,1,1.6,2.4,1.6h2.8v1.3c-2.7,0-4.8,0-6.9,0s-4.1,0-5.9,0v-1.3h0Z"/>
      <path class="cls-8" d="M257.4,76.6c.6,3.3,2.6,6,6.2,6s4-1.8,4-3.5c0-5.8-10.8-4-10.8-11.9s2.2-6.3,7.7-6.3,3.7.4,5.6,1.4l.4,5h-1.1c-.5-3.1-2.2-4.9-5.4-4.9s-3.8,1.1-3.8,3.3c0,5.8,11.5,4,11.5,11.8s-2.6,6.7-8.5,6.7-4.3-.7-6-1.7l-.5-5.7.9-.3h0Z"/>
      <path class="cls-8" d="M316.2,57.9h-1.2c-.9-5.8-5-8.1-10.6-8.1s-13.9,3.8-13.9,15.7,7.1,17.1,14.7,17.1,8.9-3.4,9.9-8.5l1.1.3-1.1,7.2c-2.1,1.3-7.7,2.6-10.9,2.6-11.6,0-18.9-7.5-18.9-18.6s9-17.4,18.7-17.4,7.8,1.3,11.7,2.6l.5,7.1h0Z"/>
      <path class="cls-8" d="M317.9,82.2h.9c1.4,0,2.4,0,2.4-1.6v-27.5c0-3.2-.7-3.3-2.6-3.9v-.8c2-.6,4-1.5,5.1-2.1.5-.3.9-.5,1.1-.5.3,0,.4.3.4.7v34.1c0,1.6,1.1,1.6,2.5,1.6h.8v1.3c-1.7,0-3.4,0-5.2,0s-3.6,0-5.4,0v-1.3h0Z"/>
      <path class="cls-8" d="M349.6,80.8c0,.9.5.9,1.4.9s1.3,0,2,0v1c-2.1.2-6.2,1.2-7.1,1.5h-.2v-4.1c-3,2.4-5.2,4.1-8.7,4.1s-5.4-1.7-5.4-5.9v-12.6c0-1.3-.2-2.5-3-2.8v-.9c1.8,0,5.7-.3,6.4-.3s.5.3.5,1.4v12.7c0,1.5,0,5.7,4.3,5.7s3.9-1.3,6-3v-13.3c0-1-2.4-1.5-4.1-2v-.9c4.4-.3,7.2-.7,7.7-.7s.4.3.4.9v18.2h0Z"/>
      <path class="cls-8" d="M359.5,64.5c2-1.7,4.6-3.6,7.4-3.6,5.7,0,9.2,5,9.2,10.4s-4.7,12.9-11.8,12.9-5.6-1.2-6.9-1.7l-1.5,1.1-1-.5c.4-2.9.7-5.8.7-8.8v-21.2c0-3.2-.7-3.3-2.6-3.9v-.8c2-.6,4-1.5,5.1-2.1.5-.3.9-.5,1.1-.5.3,0,.4.3.4.7v18h0ZM359.5,77.9h0c0,1.9,1.8,5,5.1,5,5.3,0,7.5-5.2,7.5-9.6s-4-9.8-7.9-9.8-3.4,1.2-4.7,2.3v12h0Z"/>
      <path class="cls-8" d="M146.4,112.2h.4c1,0,2-.1,2-1.5v-14.1c0-1.4-1-1.5-2-1.5h-.4v-.8c1,0,2.7.1,4,.1s3-.1,4.2-.1v.8h-.4c-1,0-2,.1-2,1.5v14.1c0,1.4,1,1.5,2,1.5h.4v.8c-1.3,0-2.9-.1-4.2-.1s-2.9.1-4,.1v-.8h0Z"/>
      <path class="cls-8" d="M154.6,113.1c-1.3,0-2.9-.1-4.2-.1s-2.9.1-3.9.1h-.1v-.9h0c0-.1.1-.1.1-.1h.4c1,0,1.9-.1,1.9-1.4v-14.1c0-1.3-.9-1.4-1.9-1.4h-.5v-1h.1c1.1,0,2.7.1,4,.1s2.9-.1,4.2-.1h.1v1h-.5c-1,0-1.9.1-1.9,1.4v14.1c0,1.3.9,1.4,1.9,1.4h.5v1h-.1ZM154.5,112.9h0v-.6h-.3c-1,0-2.1-.2-2.1-1.7v-14.1c0-1.5,1.1-1.7,2.1-1.7h.3v-.6c-1.2,0-2.8.1-4.1.1s-2.8,0-3.9-.1v.6h.3c1,0,2.1.2,2.1,1.7v14.1c0,1.5-1.1,1.7-2.1,1.7h-.3v.6c1,0,2.6-.1,3.8-.1,1.3,0,2.9.1,4.1.1h0Z"/>
      <path class="cls-8" d="M173.1,107.7h0v-10.1c0-2.2-1.5-2.5-2.3-2.5h-.6v-.8c1.3,0,2.5.1,3.8.1s2.2-.1,3.3-.1v.8h-.4c-1.1,0-2.4.2-2.4,3.4v12.2c0,.9,0,1.9.2,2.7h-1l-13.8-15.4v11.1c0,2.3.5,3.1,2.5,3.1h.5v.8c-1.2,0-2.3-.1-3.5-.1s-2.4.1-3.7.1v-.8h.4c1.9,0,2.4-1.3,2.4-3.4v-11.3c0-1.5-1.2-2.4-2.4-2.4h-.4v-.8c1,0,2.1.1,3.1.1s1.6-.1,2.4-.1l12,13.5h0Z"/>
      <path class="cls-8" d="M174.7,113.5h-1.1s-13.6-15.2-13.6-15.2v10.8c0,2.3.4,3,2.4,3h.6v1h-.1c-1.2,0-2.3-.1-3.5-.1s-2.4.1-3.7.1h-.1v-1h.5c1.8,0,2.3-1.1,2.3-3.3v-11.3c0-1.4-1.2-2.3-2.3-2.3h-.5v-1h.1c1,0,2.1.1,3.1.1s1.6-.1,2.5,0l11.8,13.3v-9.9c0-2.1-1.4-2.4-2.2-2.4h-.7v-1h.1c1.3,0,2.5.1,3.8.1s2.2-.1,3.3-.1h.1v1h-.5c-1.1,0-2.2.1-2.3,3.3v12.2c0,.9,0,1.9.2,2.7h0c0,.1-.1.1-.1.1h0ZM173.6,113.3h.9c-.1-.8-.1-1.7-.1-2.6v-12.2c0-3.2,1.4-3.5,2.5-3.5h.3v-.6c-1.1,0-2.1.1-3.2.1s-2.4,0-3.6-.1v.6s.5,0,.5,0c.8,0,2.5.4,2.5,2.6v10.2s0,0,0,0h0c0,0-11.9-13.4-11.9-13.4-.8,0-1.6.1-2.4.1s-2,0-3-.1v.6s.2,0,.2,0c1.3,0,2.6,1,2.6,2.5v11.3c0,2.1-.6,3.5-2.5,3.5h-.3s0,.6,0,.6c1.2,0,2.4-.1,3.5-.1s2.2,0,3.3.1v-.6h-.3c-2.1,0-2.6-.9-2.6-3.3v-11.4l14,15.6h0ZM173.1,107.7h0c0,0,0,0,0,0ZM173,107.6h0s0,0,0,0h0Z"/>
      <path class="cls-8" d="M181.3,95.6c-2,0-2.1.5-2.5,2.4h-.8c.1-.8.2-1.5.3-2.3.1-.8.2-1.5.2-2.3h.6c.2.8.9.8,1.6.8h13.9c.7,0,1.4,0,1.5-.8h.6c-.1.8-.2,1.6-.3,2.3,0,.7,0,1.5,0,2.2l-.8.3c0-1-.2-2.6-2-2.6h-4.4v14.3c0,2.1.9,2.3,2.2,2.3h.5v.8c-1,0-2.9-.1-4.4-.1s-3.5.1-4.5.1v-.8h.5c1.5,0,2.2-.1,2.2-2.3v-14.4h-4.4Z"/>
      <path class="cls-8" d="M191.9,113.1c-1.1,0-2.9-.1-4.4-.1s-3.5.1-4.5.1h-.1v-1h.6c1.5,0,2.1,0,2.1-2.1v-14.2h-4.3v-.2h4.5v14.5c0,2.2-.9,2.4-2.3,2.4h-.4v.6c1.1,0,2.9-.1,4.4-.1s3.2,0,4.3.1v-.6h-.4c-1.3,0-2.3-.3-2.3-2.4v-14.4h4.5c1.8,0,2,1.5,2.1,2.5l.6-.2c0-.7,0-1.4,0-2.1,0-.7.2-1.4.3-2.1h-.4c-.1.7-.9.8-1.6.7h-14c-.6,0-1.3,0-1.6-.8h-.4c0,.7,0,1.5-.2,2.2,0,.7-.2,1.4-.3,2.2h.6c.4-1.9.6-2.5,2.6-2.5h0v.2c-2,0-1.9.4-2.4,2.4h0c0,0,0,0,0,0h-.9,0c.1-.9.2-1.6.3-2.4.1-.7.2-1.5.2-2.3h0c0-.1.1-.1.1-.1h.8c.2.8.7.8,1.4.8h14c.7,0,1.3,0,1.3-.7h0c0-.1.1-.1.1-.1h.8c0,.1,0,.2,0,.2-.1.7-.2,1.4-.3,2.2,0,.7,0,1.4,0,2.2h0c0,0,0,.1,0,.1l-1,.3v-.2c0-1-.2-2.5-1.9-2.5h-4.3v14.2c0,2,.8,2.2,2.1,2.2h.6v1h-.1Z"/>
      <path class="cls-8" d="M197.6,112.2h.4c1,0,2-.1,2-1.5v-14.1c0-1.4-1-1.5-2-1.5h-.4v-.8c1.6,0,4.4.1,6.7.1s5.1-.1,6.9-.1c0,1.2,0,2.9,0,4.1l-.8.2c-.1-1.7-.5-3.1-3.3-3.1h-3.7v7h3.2c1.6,0,2-.9,2.1-2.4h.8c0,1.1,0,2.1,0,3.1s0,2,0,3.1l-.8.2c-.2-1.6-.2-2.7-2.1-2.7h-3.2v6.3c0,1.7,1.6,1.7,3.3,1.7,3.2,0,4.6-.2,5.5-3.3l.8.2c-.4,1.4-.7,2.8-.9,4.3-1.7,0-4.8-.1-7.2-.1s-5.6.1-7.1.1v-.8h0Z"/>
      <path class="cls-8" d="M211.9,113.1c-1.7,0-4.8-.1-7.2-.1s-5.6.1-7.1.1h-.1v-.9h0c0-.1.1-.1.1-.1h.4c1,0,1.9-.1,1.9-1.4v-14.1c0-1.3-.9-1.4-1.9-1.4h-.5v-1h.1c1.6,0,4.4.1,6.7.1s5-.1,6.9-.1h.1,0c0,.5,0,1,0,1.5,0,.9,0,1.9,0,2.7h0c0,0,0,.1,0,.1l-.9.2h0c-.2-1.9-.4-3.1-3.2-3.2h-3.6v6.8s3.1,0,3.1,0c1.5,0,1.8-.8,2-2.3h0c0-.1.1-.1.1-.1h.9,0c0,1.2,0,2.2,0,3.3s0,2,0,3.1h0c0,0,0,.1,0,.1l-.9.2h0c-.2-1.8-.2-2.7-2-2.7h-3.1s0,6.1,0,6.1c0,1.6,1.4,1.6,3.2,1.6,3.2,0,4.5-.2,5.3-3.2h0c0-.1.1,0,.1,0l.9.2h0c-.3,1.5-.7,3-.9,4.4h0c0,0,0,0,0,0h0ZM211.8,112.9h0c.2-1.4.5-2.7.9-4.1h-.5c-.8,2.9-2.4,3.1-5.5,3.1-1.7,0-3.4,0-3.4-1.9v-6.4h3.3c1.9,0,2.1,1.1,2.2,2.6h.6c0-1.1,0-2.1,0-3.1s0-2,0-3h-.6c-.1,1.4-.6,2.4-2.2,2.4h-3.3v-7.3h3.9c2.8,0,3.3,1.4,3.4,3.1l.6-.2c0-.8,0-1.7,0-2.6s0-.9,0-1.3c-1.8,0-4.5.1-6.8.1s-4.9,0-6.6-.1v.6h.3c1,0,2.1.2,2.1,1.7v14.1c0,1.5-1.1,1.6-2.1,1.7h-.3v.6c1.6,0,4.7-.1,7-.1,2.4,0,5.4.1,7.1.1h0Z"/>
      <path class="cls-8" d="M216.5,97.1c0-2-1.1-2-1.9-2h-.5v-.8c.9,0,2.5.1,4.2.1s2.9-.1,4.3-.1c3.4,0,6.4.9,6.4,4.7s-1.6,3.9-3.7,4.7l4.6,6.9c.8,1.1,1.3,1.5,2.6,1.6v.8c-.9,0-1.7-.1-2.6-.1s-1.7.1-2.5.1c-2.1-2.7-3.8-5.6-5.6-8.7h-1.8v5.8c0,2.1,1,2.1,2.2,2.1h.5v.8c-1.5,0-3.1-.1-4.6-.1s-2.6.1-3.9.1v-.8h.5c1,0,1.9-.5,1.9-1.4v-13.7h0ZM219.9,103.3h1.3c2.7,0,4.1-1,4.1-4.2s-1.5-3.9-3.9-3.9-1.1,0-1.5.1v8h0Z"/>
      <path class="cls-8" d="M232.4,113.1c-.9,0-1.8-.1-2.6-.1s-1.7.1-2.6,0c-2.1-2.7-3.8-5.6-5.6-8.7h-1.6v5.6c0,2,.8,2,2.1,2h.6v1h-.1c-1.5,0-3.1-.1-4.6-.1s-2.5.1-3.9.1h-.1v-1h.6c1,0,1.8-.4,1.8-1.3v-13.7c0-1.9-1-1.9-1.8-1.9h-.6v-1h.1c.9,0,2.5.1,4.2.1s2.9-.1,4.3-.1c3.4,0,6.5.9,6.5,4.8,0,2.4-1.6,3.9-3.7,4.8l4.5,6.8c.8,1.1,1.2,1.4,2.5,1.6h0v1h-.1ZM219.9,104.2h1.9c1.8,3.1,3.5,6,5.5,8.7.8,0,1.7-.1,2.5-.1s1.7,0,2.5.1v-.6c-1.3-.2-1.9-.5-2.6-1.6l-4.7-7h.1c2.1-.9,3.7-2.3,3.7-4.7,0-3.7-2.9-4.6-6.3-4.6-1.4,0-2.7.1-4.3.1s-3.2,0-4.1-.1v.6h.4c.8,0,2,.1,2,2.2v13.7c0,1.1-1,1.6-2,1.6h-.4v.6c1.3,0,2.5-.1,3.8-.1s3,.1,4.5.1v-.6h-.4c-1.2,0-2.3-.2-2.3-2.3v-5.9h.1ZM219.9,103.4h-.1v-8.2h.1c.4,0,.7-.1,1.5-.1,2.4,0,4,1.6,4,4,0,3.2-1.5,4.3-4.3,4.3h-1.3ZM221.2,103.2h0c2.7,0,4-.9,4-4.1,0-2.3-1.5-3.8-3.8-3.8-.7,0-1.1,0-1.4,0v7.8h1.2Z"/>
      <path class="cls-8" d="M250.7,107.7h0v-10.1c0-2.2-1.5-2.5-2.3-2.5h-.6v-.8c1.3,0,2.5.1,3.8.1s2.2-.1,3.3-.1v.8h-.4c-1.1,0-2.4.2-2.4,3.4v12.2c0,.9,0,1.9.2,2.7h-1l-13.8-15.4v11.1c0,2.3.5,3.1,2.5,3.1h.5v.8c-1.2,0-2.3-.1-3.5-.1s-2.4.1-3.7.1v-.8h.4c1.9,0,2.4-1.3,2.4-3.4v-11.3c0-1.5-1.2-2.4-2.4-2.4h-.4v-.8c1,0,2.1.1,3.1.1s1.6-.1,2.4-.1l12,13.5h0Z"/>
      <path class="cls-8" d="M252.2,113.5h-1.1s-13.6-15.2-13.6-15.2v10.8c0,2.3.4,3,2.4,3h.6v1h-.1c-1.2,0-2.3-.1-3.5-.1s-2.4.1-3.6.1h-.1v-1h.5c1.8,0,2.3-1.1,2.3-3.3v-11.3c0-1.4-1.2-2.3-2.3-2.3h-.5v-1h.1c1,0,2.1.1,3.1.1s1.6-.1,2.5,0l11.8,13.3v-9.9c0-2.1-1.4-2.4-2.2-2.4h-.7v-1h.1c1.3,0,2.5.1,3.8.1s2.2-.1,3.3-.1h.1v1h-.5c-1.1,0-2.3.1-2.3,3.3v12.2c0,.9,0,1.9.2,2.7h0c0,.1-.1.1-.1.1h0ZM251.2,113.3h.9c-.1-.8-.1-1.7-.1-2.6v-12.2c0-3.2,1.4-3.5,2.5-3.5h.3v-.6c-1.1,0-2.1.1-3.2.1s-2.4,0-3.6-.1v.6h.5c.8,0,2.5.4,2.5,2.6v10.2s0,0,0,0h0c0,0-12-13.4-12-13.4-.8,0-1.6.1-2.4.1s-2,0-3-.1v.6h.2c1.3,0,2.6,1,2.6,2.5v11.3c0,2.2-.6,3.5-2.5,3.5h-.3s0,.6,0,.6c1.2,0,2.4-.1,3.5-.1s2.2,0,3.4.1v-.6h-.3c-2.1,0-2.6-.9-2.6-3.3v-11.4l14,15.6h0ZM250.7,107.7h0c0,0,0,0,0,0ZM250.6,107.6h0s0,0,0,0h0Z"/>
      <path class="cls-8" d="M259.2,109.1c-.3.9-.6,1.6-.6,2.1,0,.8,1.1.9,2,.9h.3v.8c-1.1,0-2.2-.1-3.3-.1s-1.9,0-2.9.1v-.8h.2c1,0,1.9-.6,2.3-1.7l4.3-12.3c.3-1,.8-2.3,1-3.3.9-.3,1.9-.8,2.4-1.2,0,0,.1,0,.2,0s.1,0,.2,0c0,.2.2.5.2.7l4.9,14.1c.3.9.6,1.9,1,2.7.3.8.9,1.1,1.8,1.1h.2v.8c-1.2,0-2.4-.1-3.7-.1s-2.7,0-4,.1v-.8h.3c.6,0,1.7-.1,1.7-.8s-.2-1.1-.5-1.9l-1-3.1h-6.1l-.9,2.8h0ZM263.1,97.2h0l-2.5,7.6h5l-2.5-7.6Z"/>
      <path class="cls-8" d="M273.5,113.1c-1.2,0-2.4-.1-3.7-.1s-2.7,0-4,.1h-.1s0-.1,0-.1v-.9h.4c.6,0,1.5-.1,1.5-.7,0-.3-.2-1-.5-1.9l-1-3h-5.9l-.8,2.7c-.3.9-.6,1.6-.6,2.1,0,.7,1,.8,1.9.8h.4v1.1h-.1c-1.1,0-2.2-.1-3.2-.1s-1.9,0-2.9.1h-.1s0-.1,0-.1v-.9h.3c1,0,1.8-.6,2.2-1.7l4.3-12.3c.4-1,.8-2.3,1.1-3.4.8-.3,1.9-.8,2.4-1.2,0,0,.1,0,.3,0,0,0,.2,0,.3.2,0,.2.2.5.2.7l4.9,14.1c.3.9.6,1.9,1,2.7.3.7.8,1,1.7,1h.3v1.1h-.1ZM265.9,112.9h0c1.3,0,2.6,0,3.9,0s2.4,0,3.6,0v-.6h0c-.9,0-1.6-.4-1.9-1.1-.4-.8-.7-1.8-1-2.8l-4.9-14.1c0-.2-.2-.5-.2-.6,0,0,0,0,0,0h0c0,0,0,0-.2,0-.5.3-1.6.9-2.4,1.1-.2,1-.6,2.4-1,3.4l-4.3,12.3c-.4,1.2-1.4,1.8-2.4,1.8h0v.6c.9,0,1.9,0,2.8,0s2.1,0,3.1,0v-.6h-.2c-.9,0-2.1-.1-2.1-1.1,0-.5.3-1.2.6-2.1h.1s-.1,0-.1,0l.9-2.9h6.3l1.1,3.2c.3.9.5,1.6.5,2,0,.8-1.2.9-1.8.9h-.2v.6h0ZM260.4,105h0l2.6-7.8h.1c0,.1,0,.1,0,.1h0c0-.1,0-.1,0-.1l2.6,7.8h-5.3ZM260.7,104.7h4.7l-2.3-7.2-2.4,7.2ZM263,97.3h0s0,0,0,0Z"/>
      <path class="cls-8" d="M274.7,95.6c-2,0-2.1.5-2.5,2.4h-.8c.1-.8.2-1.5.3-2.3.1-.8.2-1.5.2-2.3h.6c.2.8.9.8,1.6.8h13.9c.7,0,1.4,0,1.4-.8h.6c-.1.8-.2,1.6-.3,2.3,0,.7,0,1.5,0,2.2l-.8.3c0-1-.2-2.6-2-2.6h-4.4v14.3c0,2.1.9,2.3,2.2,2.3h.5v.8c-1,0-2.9-.1-4.4-.1s-3.5.1-4.5.1v-.8h.5c1.5,0,2.2-.1,2.2-2.3v-14.4h-4.4Z"/>
      <path class="cls-8" d="M285.3,113.1c-1.1,0-2.9-.1-4.4-.1s-3.5.1-4.5.1h-.1v-1h.6c1.5,0,2.1,0,2.1-2.1v-14.2h-4.3v-.2h4.5v14.5c0,2.2-.9,2.4-2.3,2.4h-.4v.6c1.1,0,2.9-.1,4.4-.1s3.2,0,4.3.1v-.6h-.4c-1.3,0-2.3-.3-2.3-2.4v-14.4h4.5c1.8,0,2,1.5,2.1,2.5l.6-.2c0-.7,0-1.4,0-2.1,0-.7.2-1.4.3-2.1h-.4c-.1.7-.9.8-1.6.7h-14c-.6,0-1.3,0-1.6-.8h-.4c0,.7,0,1.5-.2,2.2,0,.7-.2,1.5-.3,2.2h.6c.4-1.9.6-2.5,2.6-2.5h0v.2c-2,0-1.9.4-2.4,2.4h0c0,0,0,0,0,0h-.9,0c.1-.9.2-1.6.3-2.4.1-.8.2-1.5.2-2.3h0c0-.1.1-.1.1-.1h.8c.2.8.7.8,1.4.8h.1s13.9,0,13.9,0c.7,0,1.3,0,1.3-.7h0c0-.1.1-.1.1-.1h.8c0,.1,0,.2,0,.2-.1.7-.2,1.4-.3,2.2,0,.7,0,1.4,0,2.2h0c0,0,0,.1,0,.1l-1,.3v-.2c0-1-.2-2.5-1.9-2.5h-4.3v14.2c0,2,.8,2.2,2.1,2.2h.6v1h-.1Z"/>
      <path class="cls-8" d="M291.1,112.2h.4c1,0,2-.1,2-1.5v-14.1c0-1.4-1-1.5-2-1.5h-.4v-.8c1,0,2.7.1,4,.1s3-.1,4.2-.1v.8h-.4c-1,0-2,.1-2,1.5v14.1c0,1.4,1,1.5,2,1.5h.4v.8c-1.3,0-2.9-.1-4.2-.1s-2.9.1-4,.1v-.8h0Z"/>
      <path class="cls-8" d="M299.3,113.1c-1.3,0-2.9-.1-4.2-.1s-2.9.1-3.9.1h-.1v-.9h0c0-.1.1-.1.1-.1h.4c1,0,1.9,0,1.9-1.4v-14.1c0-1.3-.9-1.4-1.9-1.4h-.5v-1h.1c1,0,2.7.1,4,.1s3-.1,4.2-.1h.1v1h-.5c-1,0-1.9.1-1.9,1.4v14.1c0,1.3.9,1.4,1.9,1.4h.5v1h-.1ZM299.1,112.9h0v-.6h-.3c-1,0-2.1-.2-2.1-1.7v-14.1c0-1.5,1.1-1.7,2.1-1.7h.3v-.6c-1.2,0-2.8.1-4.1.1s-2.8,0-3.9-.1v.6h.3c1,0,2.1.2,2.1,1.7v14.1c0,1.5-1.1,1.7-2.1,1.7h-.3v.6c1,0,2.6-.1,3.8-.1s2.9,0,4.1.1h0Z"/>
      <path class="cls-8" d="M310,93.8c5.7,0,10.3,3.6,10.3,9.3s-4.4,10.3-10.2,10.3-10-3.9-10-9.6,4.3-9.9,9.9-9.9h0ZM310.4,112.2h0c5.2,0,6.1-4.6,6.1-8.5s-2.1-8.7-6.6-8.7-6.1,4.2-6.1,7.8,2.2,9.4,6.6,9.4h0Z"/>
      <path class="cls-8" d="M300,103.7c0-5.7,4.4-10,10-10h0v.2c-5.5,0-9.8,4.3-9.8,9.8,0,5.7,4.3,9.5,9.9,9.5,5.7,0,10-4.1,10-10.2,0-5.6-4.5-9.1-10.2-9.2h0v-.2c5.8,0,10.4,3.6,10.4,9.4,0,6.2-4.5,10.4-10.3,10.4-5.7,0-10.2-3.9-10.2-9.8h0ZM303.7,102.8h0c0-3.6,1.4-7.9,6.2-7.9,4.6,0,6.7,4.9,6.7,8.8,0,3.9-.9,8.6-6.2,8.6h0v-.2c5.1,0,6-4.5,6-8.4,0-3.9-2.1-8.6-6.5-8.6-4.6,0-6,4.1-6,7.7,0,4.8,2.2,9.3,6.4,9.3h0v.2c-4.5,0-6.7-4.7-6.7-9.5h0Z"/>
      <path class="cls-8" d="M338.4,107.7h0v-10.1c0-2.2-1.5-2.5-2.3-2.5h-.6v-.8c1.3,0,2.5.1,3.8.1s2.2-.1,3.3-.1v.8h-.4c-1.1,0-2.4.2-2.4,3.4v12.2c0,.9,0,1.9.2,2.7h-1l-13.8-15.4v11.1c0,2.3.5,3.1,2.5,3.1h.5v.8c-1.2,0-2.3-.1-3.5-.1s-2.4.1-3.7.1v-.8h.4c1.9,0,2.4-1.3,2.4-3.4v-11.3c0-1.5-1.2-2.4-2.4-2.4h-.4v-.8c1,0,2.1.1,3.1.1s1.6-.1,2.4-.1l12,13.5h0Z"/>
      <path class="cls-8" d="M339.9,113.5h-1.1s-13.6-15.2-13.6-15.2v10.8c0,2.3.4,3,2.4,3h.6v1h-.1c-1.2,0-2.3-.1-3.5-.1s-2.4.1-3.7.1h-.1v-1h.5c1.8,0,2.3-1.1,2.3-3.3v-11.3c0-1.4-1.2-2.3-2.3-2.3h-.5v-1h.1c1,0,2.1.1,3.1.1s1.6-.1,2.5,0l11.8,13.3v-9.9c0-2.1-1.4-2.4-2.2-2.4h-.7v-1h.1c1.3,0,2.5.1,3.8.1s2.2-.1,3.3-.1h.1v1h-.5c-1.1,0-2.2.1-2.3,3.3v12.2c0,.9,0,1.9.2,2.7h0c0,.1-.1.1-.1.1h0ZM338.9,113.3h.9c-.1-.8-.1-1.7-.1-2.6v-12.2c0-3.2,1.4-3.5,2.5-3.5h.3v-.6c-1.1,0-2.1.1-3.2.1s-2.4,0-3.6-.1v.6h.5c.8,0,2.5.4,2.5,2.6v10.2s0,0,0,0h0c0,0-12-13.4-12-13.4-.8,0-1.6.1-2.4.1s-2,0-3-.1v.6h.2c1.3,0,2.6,1,2.6,2.5v11.3c0,2.1-.6,3.5-2.5,3.5h-.3s0,.6,0,.6c1.2,0,2.4-.1,3.5-.1s2.2,0,3.3.1v-.6h-.3c-2.1,0-2.6-.9-2.6-3.3v-11.4l14,15.6h0ZM338.4,107.7h0c0,0,0,0,0,0ZM338.3,107.6h0s0,0,0,0h0Z"/>
      <path class="cls-8" d="M346.9,109.1c-.3.9-.6,1.6-.6,2.1,0,.8,1.1.9,2,.9h.3v.8c-1.1,0-2.2-.1-3.3-.1s-1.9,0-2.9.1v-.8h.2c1.1,0,1.9-.6,2.3-1.7l4.3-12.3c.3-1,.8-2.3,1-3.3.9-.3,1.9-.8,2.4-1.2,0,0,.1,0,.2,0s.1,0,.2,0c0,.2.2.5.2.7l4.9,14.1c.3.9.6,1.9,1,2.7.3.8.9,1.1,1.8,1.1h.2v.8c-1.2,0-2.4-.1-3.7-.1s-2.7,0-4,.1v-.8h.3c.6,0,1.7-.1,1.7-.8s-.2-1.1-.5-1.9l-1-3.1h-6.1l-.9,2.8h0ZM350.8,97.2h0l-2.5,7.6h5l-2.5-7.6Z"/>
      <path class="cls-8" d="M361.2,113.1c-1.2,0-2.4-.1-3.7-.1s-2.7,0-4,.1h-.1s0-.1,0-.1v-.9h.4c.6,0,1.6-.1,1.6-.7,0-.3-.2-1-.5-1.9l-1-3h-5.9l-.8,2.7c-.3.9-.6,1.6-.6,2.1,0,.7,1,.8,1.9.8h.4v1h-.1c-1.1,0-2.2-.1-3.2-.1s-1.9,0-2.9.1h-.1s0-.1,0-.1v-.9h.3c1,0,1.8-.6,2.2-1.7l4.3-12.3c.3-1,.8-2.3,1.1-3.4.8-.3,1.9-.8,2.4-1.2,0,0,.1,0,.3,0,0,0,.2,0,.3.2,0,.2.2.5.2.7l4.9,14.1c.3.9.6,1.9,1,2.7.3.7.8,1,1.7,1h.3v1h-.1ZM353.6,112.9h0c1.3,0,2.6-.1,3.9-.1s2.4,0,3.6,0v-.6h0c-.9,0-1.5-.4-1.9-1.1-.4-.8-.7-1.8-1-2.7l-4.9-14.1c0-.2-.2-.5-.2-.6,0,0,0,0,0,0h0c0,0,0,0-.2,0-.5.3-1.6.9-2.4,1.1-.2,1-.7,2.4-1,3.4l-4.3,12.3c-.4,1.2-1.3,1.8-2.4,1.8h0v.6c.9,0,1.8,0,2.8,0s2.1,0,3.1,0v-.6h-.2c-.9,0-2.1-.1-2.1-1.1,0-.5.3-1.2.6-2.1h.1s-.1,0-.1,0l.9-2.9h6.3l1.1,3.2c.3.9.5,1.6.5,2,0,.8-1.2.9-1.8.9h-.2v.6h0ZM348.1,105h0l2.6-7.8h.1c0,.1,0,.1,0,.1h0c0-.1,0-.1,0-.1l2.5,7.8h-5.3ZM348.4,104.7h4.7l-2.3-7.2-2.4,7.2h0ZM350.7,97.3h0s0,0,0,0Z"/>
      <path class="cls-8" d="M368,110.4c0,1.1.7,1.4,1.6,1.5,1.1,0,2.3,0,3.6,0,1.1-.1,2.1-.8,2.6-1.5.4-.6.7-1.3.8-1.9h.8c-.3,1.5-.7,3-1,4.6-2.4,0-4.7-.1-7.1-.1s-4.7.1-7.1.1v-.8h.4c1,0,2-.1,2-1.8v-13.8c0-1.4-1.1-1.5-2-1.5h-.4v-.8c1.4,0,2.8.1,4.2.1s2.7-.1,4.1-.1v.8h-.7c-1,0-1.8,0-1.8,1.4v13.9h0Z"/>
      <path class="cls-8" d="M376.3,113.1c-2.4,0-4.7-.1-7.1-.1s-4.7.1-7.1.1h-.1v-1h.5c1,0,1.9,0,1.9-1.7v-13.8c0-1.3-.9-1.4-1.9-1.4h-.5v-1h.1c1.4,0,2.8.1,4.2.1s2.7-.1,4.1-.1h.1v1h-.8c-1,0-1.7,0-1.7,1.3v13.9c0,1,.7,1.3,1.5,1.4.5,0,1,0,1.5,0s1.3,0,2-.1c1.1-.1,2-.8,2.5-1.4.4-.6.7-1.3.8-1.9h0c0,0,0,0,0,0h.9,0c-.3,1.7-.7,3.2-1,4.7h0c0,0,0,0,0,0h0ZM376.2,112.9h0c.3-1.5.7-2.9,1-4.3h-.6c-.2.6-.4,1.3-.8,1.9-.5.7-1.5,1.4-2.7,1.5-.7,0-1.4.1-2.1.1s-1,0-1.5,0c-.9,0-1.7-.5-1.7-1.6v-13.9c0-1.5.9-1.6,1.9-1.6h.6v-.6c-1.3,0-2.6.1-4,.1s-2.8,0-4.1-.1v.6h.3c1,0,2.1.2,2.1,1.6v13.8c0,1.7-1.2,1.9-2.1,1.9h-.3v.6c2.3,0,4.6-.1,7-.1s4.7.1,7,.1h0Z"/>
      <path class="cls-8" d="M377,93.5c1.6,0,2.8,1.2,2.8,2.8s-1.2,2.8-2.8,2.8-2.8-1.2-2.8-2.8c0-1.6,1.2-2.8,2.8-2.8ZM377,98.6h0c1.3,0,2.2-1.1,2.2-2.3s-1-2.3-2.2-2.3-2.2,1.1-2.2,2.3,1,2.3,2.2,2.3ZM375.6,97.8h0c.3-.2.4-.2.4-.4v-2.1c0-.3,0-.4-.4-.4h0c0-.1,1.4-.1,1.4-.1.5,0,1,.2,1,.8s-.3.7-.7.9l.5.6c.2.3.5.6.6.7h0c0,0-.6,0-.6,0-.3,0-.5-.6-1-1.3h-.3v.9c0,.2,0,.2.4.2h0c0,.1-1.4.1-1.4.1h0ZM376.5,96.3h.3c.4,0,.5-.3.5-.7s-.3-.6-.6-.6h-.3v1.3Z"/>
      <path class="cls-2" d="M86.9,128.2c25.7.1,49.1-20.9,49.1-46.5s-23.4-47.4-49.1-47.4h-22.1c-26,0-47.3,19.4-47.3,47.4s21.4,46.7,47.3,46.5h22.1Z"/>
      <path class="cls-6" d="M64.9,38.2c-23.7,0-43,19.2-43,43,0,23.7,19.2,43,43,43,23.7,0,43-19.2,43-43,0-23.7-19.2-43-43-43ZM37.7,81.1h0c0-11.6,7.3-21.5,17.5-25.4v50.8c-10.2-3.9-17.5-13.8-17.5-25.4ZM74.7,106.6h0v-50.9c10.2,3.9,17.5,13.8,17.5,25.4,0,11.6-7.3,21.5-17.5,25.4Z"/>
      <path class="cls-8" d="M151,54.5c0-4.4-2.3-4.1-4.5-4.2v-1.3c1.9,0,3.9,0,5.8,0s4.9,0,8.5,0c12.8,0,19.7,8.5,19.7,17.3s-2.9,17.2-20.3,17.2-4.8,0-7.2,0-4.4,0-6.6,0v-1.3c3-.3,4.4-.4,4.5-3.8v-24h0ZM155.9,77.6h0c0,3.8,2.7,4.2,5.1,4.2,10.7,0,14.2-8.1,14.2-15.4s-5.9-15.9-15.5-15.9-3,.1-3.9.2v26.9h0Z"/>
      <path class="cls-8" d="M182.4,82.2h.9c1.4,0,2.4,0,2.4-1.6v-13.4c0-2.2-.7-2.5-2.6-3.5v-.8c2.3-.7,5.1-1.6,5.3-1.8.3-.2.6-.2.9-.2s.3.3.3.7v19c0,1.6,1.1,1.6,2.5,1.6h.8v1.3c-1.7,0-3.4,0-5.2,0s-3.6,0-5.4,0v-1.3h0ZM187.6,53.3h0c-1.3,0-2.4-1.2-2.4-2.5s1.2-2.4,2.4-2.4,2.4,1,2.4,2.4-1.1,2.5-2.4,2.5Z"/>
      <path class="cls-8" d="M197.6,67.5c0-1.8-.5-2.3-2.9-3.3v-.9c2.1-.7,4.1-1.3,6.5-2.4.1,0,.3.1.3.5v3.2c2.8-2,5.2-3.7,8.6-3.7s5.7,3.1,5.7,6.9v12.7c0,1.6,1.1,1.6,2.5,1.6h.9v1.3c-1.7,0-3.5,0-5.2,0s-3.6,0-5.3,0v-1.3h.9c1.4,0,2.4,0,2.4-1.6v-12.8c0-2.8-1.7-4.2-4.5-4.2s-4.1,1.3-5.7,2.4v14.6c0,1.6,1.1,1.6,2.5,1.6h.9v1.3c-1.7,0-3.5,0-5.2,0s-3.6,0-5.3,0v-1.3h.9c1.4,0,2.4,0,2.4-1.6v-13.1h0Z"/>
      <path class="cls-8" d="M222.9,69.8c-.1.4-.1,1.2,0,2.9.3,4.7,3.3,8.5,7.3,8.5s4.8-1.5,6.7-3.3l.7.7c-2.3,3-5.1,5.6-9.1,5.6-7.9,0-9.4-7.6-9.4-10.8,0-9.7,6.5-12.5,10-12.5s8.3,2.5,8.3,7.8c0,.3,0,.6,0,.9l-.4.3h-13.9ZM231.6,68.3h0c1.2,0,1.4-.6,1.4-1.2,0-2.5-1.5-4.5-4.3-4.5s-5.1,2.2-5.7,5.8h8.6Z"/>
      <path class="cls-8" d="M238.4,82.2h1.3c1.4,0,2.4,0,2.4-1.6v-13.9c0-1.5-1.8-1.8-2.6-2.2v-.7c3.6-1.5,5.6-2.8,6-2.8s.4.1.4.6v4.4h.1c1.2-1.9,3.3-5.1,6.3-5.1s2.8.8,2.8,2.6-.9,2.5-2.3,2.5-1.5-1.2-3.3-1.2-3.6,1.1-3.6,4.1v11.6c0,1.6,1,1.6,2.4,1.6h2.8v1.3c-2.7,0-4.8,0-6.9,0s-4.1,0-5.9,0v-1.3h0Z"/>
      <path class="cls-8" d="M257.4,76.6c.6,3.3,2.6,6,6.2,6s4-1.8,4-3.5c0-5.8-10.8-4-10.8-11.9s2.2-6.3,7.7-6.3,3.7.4,5.6,1.4l.4,5h-1.1c-.5-3.1-2.2-4.9-5.4-4.9s-3.8,1.1-3.8,3.3c0,5.8,11.5,4,11.5,11.8s-2.6,6.7-8.5,6.7-4.3-.7-6-1.7l-.5-5.7.9-.3h0Z"/>
      <path class="cls-8" d="M316.2,57.9h-1.2c-.9-5.8-5-8.1-10.6-8.1s-13.9,3.8-13.9,15.7,7.1,17.1,14.7,17.1,8.9-3.4,9.9-8.5l1.1.3-1.1,7.2c-2.1,1.3-7.7,2.6-10.9,2.6-11.6,0-18.9-7.5-18.9-18.6s9-17.4,18.7-17.4,7.8,1.3,11.7,2.6l.5,7.1h0Z"/>
      <path class="cls-8" d="M317.9,82.2h.9c1.4,0,2.4,0,2.4-1.6v-27.5c0-3.2-.7-3.3-2.6-3.9v-.8c2-.6,4-1.5,5.1-2.1.5-.3.9-.5,1.1-.5.3,0,.4.3.4.7v34.1c0,1.6,1.1,1.6,2.5,1.6h.8v1.3c-1.7,0-3.4,0-5.2,0s-3.6,0-5.4,0v-1.3h0Z"/>
      <path class="cls-8" d="M349.6,80.8c0,.9.5.9,1.4.9s1.3,0,2,0v1c-2.1.2-6.2,1.2-7.1,1.5h-.2v-4.1c-3,2.4-5.2,4.1-8.7,4.1s-5.4-1.7-5.4-5.9v-12.6c0-1.3-.2-2.5-3-2.8v-.9c1.8,0,5.7-.3,6.4-.3s.5.3.5,1.4v12.7c0,1.5,0,5.7,4.3,5.7s3.9-1.3,6-3v-13.3c0-1-2.4-1.5-4.1-2v-.9c4.4-.3,7.2-.7,7.7-.7s.4.3.4.9v18.2h0Z"/>
      <path class="cls-8" d="M359.5,64.5c2-1.7,4.6-3.6,7.4-3.6,5.7,0,9.2,5,9.2,10.4s-4.7,12.9-11.8,12.9-5.6-1.2-6.9-1.7l-1.5,1.1-1-.5c.4-2.9.7-5.8.7-8.8v-21.2c0-3.2-.7-3.3-2.6-3.9v-.8c2-.6,4-1.5,5.1-2.1.5-.3.9-.5,1.1-.5.3,0,.4.3.4.7v18h0ZM359.5,77.9h0c0,1.9,1.8,5,5.1,5,5.3,0,7.5-5.2,7.5-9.6s-4-9.8-7.9-9.8-3.4,1.2-4.7,2.3v12h0Z"/>
      <path class="cls-8" d="M146.4,112.2h.4c1,0,2-.1,2-1.5v-14.1c0-1.4-1-1.5-2-1.5h-.4v-.8c1,0,2.7.1,4,.1s3-.1,4.2-.1v.8h-.4c-1,0-2,.1-2,1.5v14.1c0,1.4,1,1.5,2,1.5h.4v.8c-1.3,0-2.9-.1-4.2-.1s-2.9.1-4,.1v-.8h0Z"/>
      <path class="cls-8" d="M154.6,113.1c-1.3,0-2.9-.1-4.2-.1s-2.9.1-3.9.1h-.1v-.9h0c0-.1.1-.1.1-.1h.4c1,0,1.9-.1,1.9-1.4v-14.1c0-1.3-.9-1.4-1.9-1.4h-.5v-1h.1c1.1,0,2.7.1,4,.1s2.9-.1,4.2-.1h.1v1h-.5c-1,0-1.9.1-1.9,1.4v14.1c0,1.3.9,1.4,1.9,1.4h.5v1h-.1ZM154.5,112.9h0v-.6h-.3c-1,0-2.1-.2-2.1-1.7v-14.1c0-1.5,1.1-1.7,2.1-1.7h.3v-.6c-1.2,0-2.8.1-4.1.1s-2.8,0-3.9-.1v.6h.3c1,0,2.1.2,2.1,1.7v14.1c0,1.5-1.1,1.7-2.1,1.7h-.3v.6c1,0,2.6-.1,3.8-.1,1.3,0,2.9.1,4.1.1h0Z"/>
      <path class="cls-8" d="M173.1,107.7h0v-10.1c0-2.2-1.5-2.5-2.3-2.5h-.6v-.8c1.3,0,2.5.1,3.8.1s2.2-.1,3.3-.1v.8h-.4c-1.1,0-2.4.2-2.4,3.4v12.2c0,.9,0,1.9.2,2.7h-1l-13.8-15.4v11.1c0,2.3.5,3.1,2.5,3.1h.5v.8c-1.2,0-2.3-.1-3.5-.1s-2.4.1-3.7.1v-.8h.4c1.9,0,2.4-1.3,2.4-3.4v-11.3c0-1.5-1.2-2.4-2.4-2.4h-.4v-.8c1,0,2.1.1,3.1.1s1.6-.1,2.4-.1l12,13.5h0Z"/>
      <path class="cls-8" d="M174.7,113.5h-1.1s-13.6-15.2-13.6-15.2v10.8c0,2.3.4,3,2.4,3h.6v1h-.1c-1.2,0-2.3-.1-3.5-.1s-2.4.1-3.7.1h-.1v-1h.5c1.8,0,2.3-1.1,2.3-3.3v-11.3c0-1.4-1.2-2.3-2.3-2.3h-.5v-1h.1c1,0,2.1.1,3.1.1s1.6-.1,2.5,0l11.8,13.3v-9.9c0-2.1-1.4-2.4-2.2-2.4h-.7v-1h.1c1.3,0,2.5.1,3.8.1s2.2-.1,3.3-.1h.1v1h-.5c-1.1,0-2.2.1-2.3,3.3v12.2c0,.9,0,1.9.2,2.7h0c0,.1-.1.1-.1.1h0ZM173.6,113.3h.9c-.1-.8-.1-1.7-.1-2.6v-12.2c0-3.2,1.4-3.5,2.5-3.5h.3v-.6c-1.1,0-2.1.1-3.2.1s-2.4,0-3.6-.1v.6s.5,0,.5,0c.8,0,2.5.4,2.5,2.6v10.2s0,0,0,0h0c0,0-11.9-13.4-11.9-13.4-.8,0-1.6.1-2.4.1s-2,0-3-.1v.6s.2,0,.2,0c1.3,0,2.6,1,2.6,2.5v11.3c0,2.1-.6,3.5-2.5,3.5h-.3s0,.6,0,.6c1.2,0,2.4-.1,3.5-.1s2.2,0,3.3.1v-.6h-.3c-2.1,0-2.6-.9-2.6-3.3v-11.4l14,15.6h0ZM173.1,107.7h0c0,0,0,0,0,0ZM173,107.6h0s0,0,0,0h0Z"/>
      <path class="cls-8" d="M181.3,95.6c-2,0-2.1.5-2.5,2.4h-.8c.1-.8.2-1.5.3-2.3.1-.8.2-1.5.2-2.3h.6c.2.8.9.8,1.6.8h13.9c.7,0,1.4,0,1.5-.8h.6c-.1.8-.2,1.6-.3,2.3,0,.7,0,1.5,0,2.2l-.8.3c0-1-.2-2.6-2-2.6h-4.4v14.3c0,2.1.9,2.3,2.2,2.3h.5v.8c-1,0-2.9-.1-4.4-.1s-3.5.1-4.5.1v-.8h.5c1.5,0,2.2-.1,2.2-2.3v-14.4h-4.4Z"/>
      <path class="cls-8" d="M191.9,113.1c-1.1,0-2.9-.1-4.4-.1s-3.5.1-4.5.1h-.1v-1h.6c1.5,0,2.1,0,2.1-2.1v-14.2h-4.3v-.2h4.5v14.5c0,2.2-.9,2.4-2.3,2.4h-.4v.6c1.1,0,2.9-.1,4.4-.1s3.2,0,4.3.1v-.6h-.4c-1.3,0-2.3-.3-2.3-2.4v-14.4h4.5c1.8,0,2,1.5,2.1,2.5l.6-.2c0-.7,0-1.4,0-2.1,0-.7.2-1.4.3-2.1h-.4c-.1.7-.9.8-1.6.7h-14c-.6,0-1.3,0-1.6-.8h-.4c0,.7,0,1.5-.2,2.2,0,.7-.2,1.4-.3,2.2h.6c.4-1.9.6-2.5,2.6-2.5h0v.2c-2,0-1.9.4-2.4,2.4h0c0,0,0,0,0,0h-.9,0c.1-.9.2-1.6.3-2.4.1-.7.2-1.5.2-2.3h0c0-.1.1-.1.1-.1h.8c.2.8.7.8,1.4.8h14c.7,0,1.3,0,1.3-.7h0c0-.1.1-.1.1-.1h.8c0,.1,0,.2,0,.2-.1.7-.2,1.4-.3,2.2,0,.7,0,1.4,0,2.2h0c0,0,0,.1,0,.1l-1,.3v-.2c0-1-.2-2.5-1.9-2.5h-4.3v14.2c0,2,.8,2.2,2.1,2.2h.6v1h-.1Z"/>
      <path class="cls-8" d="M197.6,112.2h.4c1,0,2-.1,2-1.5v-14.1c0-1.4-1-1.5-2-1.5h-.4v-.8c1.6,0,4.4.1,6.7.1s5.1-.1,6.9-.1c0,1.2,0,2.9,0,4.1l-.8.2c-.1-1.7-.5-3.1-3.3-3.1h-3.7v7h3.2c1.6,0,2-.9,2.1-2.4h.8c0,1.1,0,2.1,0,3.1s0,2,0,3.1l-.8.2c-.2-1.6-.2-2.7-2.1-2.7h-3.2v6.3c0,1.7,1.6,1.7,3.3,1.7,3.2,0,4.6-.2,5.5-3.3l.8.2c-.4,1.4-.7,2.8-.9,4.3-1.7,0-4.8-.1-7.2-.1s-5.6.1-7.1.1v-.8h0Z"/>
      <path class="cls-8" d="M211.9,113.1c-1.7,0-4.8-.1-7.2-.1s-5.6.1-7.1.1h-.1v-.9h0c0-.1.1-.1.1-.1h.4c1,0,1.9-.1,1.9-1.4v-14.1c0-1.3-.9-1.4-1.9-1.4h-.5v-1h.1c1.6,0,4.4.1,6.7.1s5-.1,6.9-.1h.1,0c0,.5,0,1,0,1.5,0,.9,0,1.9,0,2.7h0c0,0,0,.1,0,.1l-.9.2h0c-.2-1.9-.4-3.1-3.2-3.2h-3.6v6.8s3.1,0,3.1,0c1.5,0,1.8-.8,2-2.3h0c0-.1.1-.1.1-.1h.9,0c0,1.2,0,2.2,0,3.3s0,2,0,3.1h0c0,0,0,.1,0,.1l-.9.2h0c-.2-1.8-.2-2.7-2-2.7h-3.1s0,6.1,0,6.1c0,1.6,1.4,1.6,3.2,1.6,3.2,0,4.5-.2,5.3-3.2h0c0-.1.1,0,.1,0l.9.2h0c-.3,1.5-.7,3-.9,4.4h0c0,0,0,0,0,0h0ZM211.8,112.9h0c.2-1.4.5-2.7.9-4.1h-.5c-.8,2.9-2.4,3.1-5.5,3.1-1.7,0-3.4,0-3.4-1.9v-6.4h3.3c1.9,0,2.1,1.1,2.2,2.6h.6c0-1.1,0-2.1,0-3.1s0-2,0-3h-.6c-.1,1.4-.6,2.4-2.2,2.4h-3.3v-7.3h3.9c2.8,0,3.3,1.4,3.4,3.1l.6-.2c0-.8,0-1.7,0-2.6s0-.9,0-1.3c-1.8,0-4.5.1-6.8.1s-4.9,0-6.6-.1v.6h.3c1,0,2.1.2,2.1,1.7v14.1c0,1.5-1.1,1.6-2.1,1.7h-.3v.6c1.6,0,4.7-.1,7-.1,2.4,0,5.4.1,7.1.1h0Z"/>
      <path class="cls-8" d="M216.5,97.1c0-2-1.1-2-1.9-2h-.5v-.8c.9,0,2.5.1,4.2.1s2.9-.1,4.3-.1c3.4,0,6.4.9,6.4,4.7s-1.6,3.9-3.7,4.7l4.6,6.9c.8,1.1,1.3,1.5,2.6,1.6v.8c-.9,0-1.7-.1-2.6-.1s-1.7.1-2.5.1c-2.1-2.7-3.8-5.6-5.6-8.7h-1.8v5.8c0,2.1,1,2.1,2.2,2.1h.5v.8c-1.5,0-3.1-.1-4.6-.1s-2.6.1-3.9.1v-.8h.5c1,0,1.9-.5,1.9-1.4v-13.7h0ZM219.9,103.3h1.3c2.7,0,4.1-1,4.1-4.2s-1.5-3.9-3.9-3.9-1.1,0-1.5.1v8h0Z"/>
      <path class="cls-8" d="M232.4,113.1c-.9,0-1.8-.1-2.6-.1s-1.7.1-2.6,0c-2.1-2.7-3.8-5.6-5.6-8.7h-1.6v5.6c0,2,.8,2,2.1,2h.6v1h-.1c-1.5,0-3.1-.1-4.6-.1s-2.5.1-3.9.1h-.1v-1h.6c1,0,1.8-.4,1.8-1.3v-13.7c0-1.9-1-1.9-1.8-1.9h-.6v-1h.1c.9,0,2.5.1,4.2.1s2.9-.1,4.3-.1c3.4,0,6.5.9,6.5,4.8,0,2.4-1.6,3.9-3.7,4.8l4.5,6.8c.8,1.1,1.2,1.4,2.5,1.6h0v1h-.1ZM219.9,104.2h1.9c1.8,3.1,3.5,6,5.5,8.7.8,0,1.7-.1,2.5-.1s1.7,0,2.5.1v-.6c-1.3-.2-1.9-.5-2.6-1.6l-4.7-7h.1c2.1-.9,3.7-2.3,3.7-4.7,0-3.7-2.9-4.6-6.3-4.6-1.4,0-2.7.1-4.3.1s-3.2,0-4.1-.1v.6h.4c.8,0,2,.1,2,2.2v13.7c0,1.1-1,1.6-2,1.6h-.4v.6c1.3,0,2.5-.1,3.8-.1s3,.1,4.5.1v-.6h-.4c-1.2,0-2.3-.2-2.3-2.3v-5.9h.1ZM219.9,103.4h-.1v-8.2h.1c.4,0,.7-.1,1.5-.1,2.4,0,4,1.6,4,4,0,3.2-1.5,4.3-4.3,4.3h-1.3ZM221.2,103.2h0c2.7,0,4-.9,4-4.1,0-2.3-1.5-3.8-3.8-3.8-.7,0-1.1,0-1.4,0v7.8h1.2Z"/>
      <path class="cls-8" d="M250.7,107.7h0v-10.1c0-2.2-1.5-2.5-2.3-2.5h-.6v-.8c1.3,0,2.5.1,3.8.1s2.2-.1,3.3-.1v.8h-.4c-1.1,0-2.4.2-2.4,3.4v12.2c0,.9,0,1.9.2,2.7h-1l-13.8-15.4v11.1c0,2.3.5,3.1,2.5,3.1h.5v.8c-1.2,0-2.3-.1-3.5-.1s-2.4.1-3.7.1v-.8h.4c1.9,0,2.4-1.3,2.4-3.4v-11.3c0-1.5-1.2-2.4-2.4-2.4h-.4v-.8c1,0,2.1.1,3.1.1s1.6-.1,2.4-.1l12,13.5h0Z"/>
      <path class="cls-8" d="M252.2,113.5h-1.1s-13.6-15.2-13.6-15.2v10.8c0,2.3.4,3,2.4,3h.6v1h-.1c-1.2,0-2.3-.1-3.5-.1s-2.4.1-3.6.1h-.1v-1h.5c1.8,0,2.3-1.1,2.3-3.3v-11.3c0-1.4-1.2-2.3-2.3-2.3h-.5v-1h.1c1,0,2.1.1,3.1.1s1.6-.1,2.5,0l11.8,13.3v-9.9c0-2.1-1.4-2.4-2.2-2.4h-.7v-1h.1c1.3,0,2.5.1,3.8.1s2.2-.1,3.3-.1h.1v1h-.5c-1.1,0-2.3.1-2.3,3.3v12.2c0,.9,0,1.9.2,2.7h0c0,.1-.1.1-.1.1h0ZM251.2,113.3h.9c-.1-.8-.1-1.7-.1-2.6v-12.2c0-3.2,1.4-3.5,2.5-3.5h.3v-.6c-1.1,0-2.1.1-3.2.1s-2.4,0-3.6-.1v.6h.5c.8,0,2.5.4,2.5,2.6v10.2s0,0,0,0h0c0,0-12-13.4-12-13.4-.8,0-1.6.1-2.4.1s-2,0-3-.1v.6h.2c1.3,0,2.6,1,2.6,2.5v11.3c0,2.2-.6,3.5-2.5,3.5h-.3s0,.6,0,.6c1.2,0,2.4-.1,3.5-.1s2.2,0,3.4.1v-.6h-.3c-2.1,0-2.6-.9-2.6-3.3v-11.4l14,15.6h0ZM250.7,107.7h0c0,0,0,0,0,0ZM250.6,107.6h0s0,0,0,0h0Z"/>
      <path class="cls-8" d="M259.2,109.1c-.3.9-.6,1.6-.6,2.1,0,.8,1.1.9,2,.9h.3v.8c-1.1,0-2.2-.1-3.3-.1s-1.9,0-2.9.1v-.8h.2c1,0,1.9-.6,2.3-1.7l4.3-12.3c.3-1,.8-2.3,1-3.3.9-.3,1.9-.8,2.4-1.2,0,0,.1,0,.2,0s.1,0,.2,0c0,.2.2.5.2.7l4.9,14.1c.3.9.6,1.9,1,2.7.3.8.9,1.1,1.8,1.1h.2v.8c-1.2,0-2.4-.1-3.7-.1s-2.7,0-4,.1v-.8h.3c.6,0,1.7-.1,1.7-.8s-.2-1.1-.5-1.9l-1-3.1h-6.1l-.9,2.8h0ZM263.1,97.2h0l-2.5,7.6h5l-2.5-7.6Z"/>
      <path class="cls-8" d="M273.5,113.1c-1.2,0-2.4-.1-3.7-.1s-2.7,0-4,.1h-.1s0-.1,0-.1v-.9h.4c.6,0,1.5-.1,1.5-.7,0-.3-.2-1-.5-1.9l-1-3h-5.9l-.8,2.7c-.3.9-.6,1.6-.6,2.1,0,.7,1,.8,1.9.8h.4v1.1h-.1c-1.1,0-2.2-.1-3.2-.1s-1.9,0-2.9.1h-.1s0-.1,0-.1v-.9h.3c1,0,1.8-.6,2.2-1.7l4.3-12.3c.4-1,.8-2.3,1.1-3.4.8-.3,1.9-.8,2.4-1.2,0,0,.1,0,.3,0,0,0,.2,0,.3.2,0,.2.2.5.2.7l4.9,14.1c.3.9.6,1.9,1,2.7.3.7.8,1,1.7,1h.3v1.1h-.1ZM265.9,112.9h0c1.3,0,2.6,0,3.9,0s2.4,0,3.6,0v-.6h0c-.9,0-1.6-.4-1.9-1.1-.4-.8-.7-1.8-1-2.8l-4.9-14.1c0-.2-.2-.5-.2-.6,0,0,0,0,0,0h0c0,0,0,0-.2,0-.5.3-1.6.9-2.4,1.1-.2,1-.6,2.4-1,3.4l-4.3,12.3c-.4,1.2-1.4,1.8-2.4,1.8h0v.6c.9,0,1.9,0,2.8,0s2.1,0,3.1,0v-.6h-.2c-.9,0-2.1-.1-2.1-1.1,0-.5.3-1.2.6-2.1h.1s-.1,0-.1,0l.9-2.9h6.3l1.1,3.2c.3.9.5,1.6.5,2,0,.8-1.2.9-1.8.9h-.2v.6h0ZM260.4,105h0l2.6-7.8h.1c0,.1,0,.1,0,.1h0c0-.1,0-.1,0-.1l2.6,7.8h-5.3ZM260.7,104.7h4.7l-2.3-7.2-2.4,7.2ZM263,97.3h0s0,0,0,0Z"/>
      <path class="cls-8" d="M274.7,95.6c-2,0-2.1.5-2.5,2.4h-.8c.1-.8.2-1.5.3-2.3.1-.8.2-1.5.2-2.3h.6c.2.8.9.8,1.6.8h13.9c.7,0,1.4,0,1.4-.8h.6c-.1.8-.2,1.6-.3,2.3,0,.7,0,1.5,0,2.2l-.8.3c0-1-.2-2.6-2-2.6h-4.4v14.3c0,2.1.9,2.3,2.2,2.3h.5v.8c-1,0-2.9-.1-4.4-.1s-3.5.1-4.5.1v-.8h.5c1.5,0,2.2-.1,2.2-2.3v-14.4h-4.4Z"/>
      <path class="cls-8" d="M285.3,113.1c-1.1,0-2.9-.1-4.4-.1s-3.5.1-4.5.1h-.1v-1h.6c1.5,0,2.1,0,2.1-2.1v-14.2h-4.3v-.2h4.5v14.5c0,2.2-.9,2.4-2.3,2.4h-.4v.6c1.1,0,2.9-.1,4.4-.1s3.2,0,4.3.1v-.6h-.4c-1.3,0-2.3-.3-2.3-2.4v-14.4h4.5c1.8,0,2,1.5,2.1,2.5l.6-.2c0-.7,0-1.4,0-2.1,0-.7.2-1.4.3-2.1h-.4c-.1.7-.9.8-1.6.7h-14c-.6,0-1.3,0-1.6-.8h-.4c0,.7,0,1.5-.2,2.2,0,.7-.2,1.5-.3,2.2h.6c.4-1.9.6-2.5,2.6-2.5h0v.2c-2,0-1.9.4-2.4,2.4h0c0,0,0,0,0,0h-.9,0c.1-.9.2-1.6.3-2.4.1-.8.2-1.5.2-2.3h0c0-.1.1-.1.1-.1h.8c.2.8.7.8,1.4.8h.1s13.9,0,13.9,0c.7,0,1.3,0,1.3-.7h0c0-.1.1-.1.1-.1h.8c0,.1,0,.2,0,.2-.1.7-.2,1.4-.3,2.2,0,.7,0,1.4,0,2.2h0c0,0,0,.1,0,.1l-1,.3v-.2c0-1-.2-2.5-1.9-2.5h-4.3v14.2c0,2,.8,2.2,2.1,2.2h.6v1h-.1Z"/>
      <path class="cls-8" d="M291.1,112.2h.4c1,0,2-.1,2-1.5v-14.1c0-1.4-1-1.5-2-1.5h-.4v-.8c1,0,2.7.1,4,.1s3-.1,4.2-.1v.8h-.4c-1,0-2,.1-2,1.5v14.1c0,1.4,1,1.5,2,1.5h.4v.8c-1.3,0-2.9-.1-4.2-.1s-2.9.1-4,.1v-.8h0Z"/>
      <path class="cls-8" d="M299.3,113.1c-1.3,0-2.9-.1-4.2-.1s-2.9.1-3.9.1h-.1v-.9h0c0-.1.1-.1.1-.1h.4c1,0,1.9,0,1.9-1.4v-14.1c0-1.3-.9-1.4-1.9-1.4h-.5v-1h.1c1,0,2.7.1,4,.1s3-.1,4.2-.1h.1v1h-.5c-1,0-1.9.1-1.9,1.4v14.1c0,1.3.9,1.4,1.9,1.4h.5v1h-.1ZM299.1,112.9h0v-.6h-.3c-1,0-2.1-.2-2.1-1.7v-14.1c0-1.5,1.1-1.7,2.1-1.7h.3v-.6c-1.2,0-2.8.1-4.1.1s-2.8,0-3.9-.1v.6h.3c1,0,2.1.2,2.1,1.7v14.1c0,1.5-1.1,1.7-2.1,1.7h-.3v.6c1,0,2.6-.1,3.8-.1s2.9,0,4.1.1h0Z"/>
      <path class="cls-8" d="M310,93.8c5.7,0,10.3,3.6,10.3,9.3s-4.4,10.3-10.2,10.3-10-3.9-10-9.6,4.3-9.9,9.9-9.9h0ZM310.4,112.2h0c5.2,0,6.1-4.6,6.1-8.5s-2.1-8.7-6.6-8.7-6.1,4.2-6.1,7.8,2.2,9.4,6.6,9.4h0Z"/>
      <path class="cls-8" d="M300,103.7c0-5.7,4.4-10,10-10h0v.2c-5.5,0-9.8,4.3-9.8,9.8,0,5.7,4.3,9.5,9.9,9.5,5.7,0,10-4.1,10-10.2,0-5.6-4.5-9.1-10.2-9.2h0v-.2c5.8,0,10.4,3.6,10.4,9.4,0,6.2-4.5,10.4-10.3,10.4-5.7,0-10.2-3.9-10.2-9.8h0ZM303.7,102.8h0c0-3.6,1.4-7.9,6.2-7.9,4.6,0,6.7,4.9,6.7,8.8,0,3.9-.9,8.6-6.2,8.6h0v-.2c5.1,0,6-4.5,6-8.4,0-3.9-2.1-8.6-6.5-8.6-4.6,0-6,4.1-6,7.7,0,4.8,2.2,9.3,6.4,9.3h0v.2c-4.5,0-6.7-4.7-6.7-9.5h0Z"/>
      <path class="cls-8" d="M338.4,107.7h0v-10.1c0-2.2-1.5-2.5-2.3-2.5h-.6v-.8c1.3,0,2.5.1,3.8.1s2.2-.1,3.3-.1v.8h-.4c-1.1,0-2.4.2-2.4,3.4v12.2c0,.9,0,1.9.2,2.7h-1l-13.8-15.4v11.1c0,2.3.5,3.1,2.5,3.1h.5v.8c-1.2,0-2.3-.1-3.5-.1s-2.4.1-3.7.1v-.8h.4c1.9,0,2.4-1.3,2.4-3.4v-11.3c0-1.5-1.2-2.4-2.4-2.4h-.4v-.8c1,0,2.1.1,3.1.1s1.6-.1,2.4-.1l12,13.5h0Z"/>
      <path class="cls-8" d="M339.9,113.5h-1.1s-13.6-15.2-13.6-15.2v10.8c0,2.3.4,3,2.4,3h.6v1h-.1c-1.2,0-2.3-.1-3.5-.1s-2.4.1-3.7.1h-.1v-1h.5c1.8,0,2.3-1.1,2.3-3.3v-11.3c0-1.4-1.2-2.3-2.3-2.3h-.5v-1h.1c1,0,2.1.1,3.1.1s1.6-.1,2.5,0l11.8,13.3v-9.9c0-2.1-1.4-2.4-2.2-2.4h-.7v-1h.1c1.3,0,2.5.1,3.8.1s2.2-.1,3.3-.1h.1v1h-.5c-1.1,0-2.2.1-2.3,3.3v12.2c0,.9,0,1.9.2,2.7h0c0,.1-.1.1-.1.1h0ZM338.9,113.3h.9c-.1-.8-.1-1.7-.1-2.6v-12.2c0-3.2,1.4-3.5,2.5-3.5h.3v-.6c-1.1,0-2.1.1-3.2.1s-2.4,0-3.6-.1v.6h.5c.8,0,2.5.4,2.5,2.6v10.2s0,0,0,0h0c0,0-12-13.4-12-13.4-.8,0-1.6.1-2.4.1s-2,0-3-.1v.6h.2c1.3,0,2.6,1,2.6,2.5v11.3c0,2.1-.6,3.5-2.5,3.5h-.3s0,.6,0,.6c1.2,0,2.4-.1,3.5-.1s2.2,0,3.3.1v-.6h-.3c-2.1,0-2.6-.9-2.6-3.3v-11.4l14,15.6h0ZM338.4,107.7h0c0,0,0,0,0,0ZM338.3,107.6h0s0,0,0,0h0Z"/>
      <path class="cls-8" d="M346.9,109.1c-.3.9-.6,1.6-.6,2.1,0,.8,1.1.9,2,.9h.3v.8c-1.1,0-2.2-.1-3.3-.1s-1.9,0-2.9.1v-.8h.2c1.1,0,1.9-.6,2.3-1.7l4.3-12.3c.3-1,.8-2.3,1-3.3.9-.3,1.9-.8,2.4-1.2,0,0,.1,0,.2,0s.1,0,.2,0c0,.2.2.5.2.7l4.9,14.1c.3.9.6,1.9,1,2.7.3.8.9,1.1,1.8,1.1h.2v.8c-1.2,0-2.4-.1-3.7-.1s-2.7,0-4,.1v-.8h.3c.6,0,1.7-.1,1.7-.8s-.2-1.1-.5-1.9l-1-3.1h-6.1l-.9,2.8h0ZM350.8,97.2h0l-2.5,7.6h5l-2.5-7.6Z"/>
      <path class="cls-8" d="M361.2,113.1c-1.2,0-2.4-.1-3.7-.1s-2.7,0-4,.1h-.1s0-.1,0-.1v-.9h.4c.6,0,1.6-.1,1.6-.7,0-.3-.2-1-.5-1.9l-1-3h-5.9l-.8,2.7c-.3.9-.6,1.6-.6,2.1,0,.7,1,.8,1.9.8h.4v1h-.1c-1.1,0-2.2-.1-3.2-.1s-1.9,0-2.9.1h-.1s0-.1,0-.1v-.9h.3c1,0,1.8-.6,2.2-1.7l4.3-12.3c.3-1,.8-2.3,1.1-3.4.8-.3,1.9-.8,2.4-1.2,0,0,.1,0,.3,0,0,0,.2,0,.3.2,0,.2.2.5.2.7l4.9,14.1c.3.9.6,1.9,1,2.7.3.7.8,1,1.7,1h.3v1h-.1ZM353.6,112.9h0c1.3,0,2.6-.1,3.9-.1s2.4,0,3.6,0v-.6h0c-.9,0-1.5-.4-1.9-1.1-.4-.8-.7-1.8-1-2.7l-4.9-14.1c0-.2-.2-.5-.2-.6,0,0,0,0,0,0h0c0,0,0,0-.2,0-.5.3-1.6.9-2.4,1.1-.2,1-.7,2.4-1,3.4l-4.3,12.3c-.4,1.2-1.3,1.8-2.4,1.8h0v.6c.9,0,1.8,0,2.8,0s2.1,0,3.1,0v-.6h-.2c-.9,0-2.1-.1-2.1-1.1,0-.5.3-1.2.6-2.1h.1s-.1,0-.1,0l.9-2.9h6.3l1.1,3.2c.3.9.5,1.6.5,2,0,.8-1.2.9-1.8.9h-.2v.6h0ZM348.1,105h0l2.6-7.8h.1c0,.1,0,.1,0,.1h0c0-.1,0-.1,0-.1l2.5,7.8h-5.3ZM348.4,104.7h4.7l-2.3-7.2-2.4,7.2h0ZM350.7,97.3h0s0,0,0,0Z"/>
      <path class="cls-8" d="M368,110.4c0,1.1.7,1.4,1.6,1.5,1.1,0,2.3,0,3.6,0,1.1-.1,2.1-.8,2.6-1.5.4-.6.7-1.3.8-1.9h.8c-.3,1.5-.7,3-1,4.6-2.4,0-4.7-.1-7.1-.1s-4.7.1-7.1.1v-.8h.4c1,0,2-.1,2-1.8v-13.8c0-1.4-1.1-1.5-2-1.5h-.4v-.8c1.4,0,2.8.1,4.2.1s2.7-.1,4.1-.1v.8h-.7c-1,0-1.8,0-1.8,1.4v13.9h0Z"/>
      <path class="cls-8" d="M376.3,113.1c-2.4,0-4.7-.1-7.1-.1s-4.7.1-7.1.1h-.1v-1h.5c1,0,1.9,0,1.9-1.7v-13.8c0-1.3-.9-1.4-1.9-1.4h-.5v-1h.1c1.4,0,2.8.1,4.2.1s2.7-.1,4.1-.1h.1v1h-.8c-1,0-1.7,0-1.7,1.3v13.9c0,1,.7,1.3,1.5,1.4.5,0,1,0,1.5,0s1.3,0,2-.1c1.1-.1,2-.8,2.5-1.4.4-.6.7-1.3.8-1.9h0c0,0,0,0,0,0h.9,0c-.3,1.7-.7,3.2-1,4.7h0c0,0,0,0,0,0h0ZM376.2,112.9h0c.3-1.5.7-2.9,1-4.3h-.6c-.2.6-.4,1.3-.8,1.9-.5.7-1.5,1.4-2.7,1.5-.7,0-1.4.1-2.1.1s-1,0-1.5,0c-.9,0-1.7-.5-1.7-1.6v-13.9c0-1.5.9-1.6,1.9-1.6h.6v-.6c-1.3,0-2.6.1-4,.1s-2.8,0-4.1-.1v.6h.3c1,0,2.1.2,2.1,1.6v13.8c0,1.7-1.2,1.9-2.1,1.9h-.3v.6c2.3,0,4.6-.1,7-.1s4.7.1,7,.1h0Z"/>
      <path class="cls-8" d="M377,93.5c1.6,0,2.8,1.2,2.8,2.8s-1.2,2.8-2.8,2.8-2.8-1.2-2.8-2.8c0-1.6,1.2-2.8,2.8-2.8ZM377,98.6h0c1.3,0,2.2-1.1,2.2-2.3s-1-2.3-2.2-2.3-2.2,1.1-2.2,2.3,1,2.3,2.2,2.3ZM375.6,97.8h0c.3-.2.4-.2.4-.4v-2.1c0-.3,0-.4-.4-.4h0c0-.1,1.4-.1,1.4-.1.5,0,1,.2,1,.8s-.3.7-.7.9l.5.6c.2.3.5.6.6.7h0c0,0-.6,0-.6,0-.3,0-.5-.6-1-1.3h-.3v.9c0,.2,0,.2.4.2h0c0,.1-1.4.1-1.4.1h0ZM376.5,96.3h.3c.4,0,.5-.3.5-.7s-.3-.6-.6-.6h-.3v1.3Z"/>
    </g>
  </g>
  <g id="Layer_4" data-name="Layer 4">
    <path class="cls-4" d="M312.3,106.4c-1.7,0-3.1-1.4-3.1-3.2v-36.3l-8.2,1.3v34.8c0,5.1,3.9,9.2,8.8,9.2h4.6v-5.7h-2Z"/>
    <polygon class="cls-4" points="217.3 112 225.5 112 225.5 77.4 217.3 78.7 217.3 112"/>
    <path class="cls-4" d="M230.7,83.5v28.5h8.2v-25.3c0-4.2,9.4-3.4,9.4-3.4l3-6.5c-13.1-3.7-20.6,6.6-20.6,6.6Z"/>
    <path class="cls-4" d="M262.1,103.1v-20h4.9v-6.3h-4.9v-10l-8.2,1.3v34.8c0,5.1,3.9,9.2,8.8,9.2h4.6v-5.7h-2c-1.7,0-3.1-1.4-3.1-3.2Z"/>
    <path class="cls-4" d="M221.4,63.8c-2.8,0-5.1,2.3-5.1,5.1s2.3,5.1,5.1,5.1,5.1-2.3,5.1-5.1-2.3-5.1-5.1-5.1Z"/>
    <path class="cls-4" d="M282.8,105.6c-5.5-2.1-5.1-10.2-5.1-10.2h19.7c0-10.2-2.5-19.1-12.4-19.1s-15.8,7.3-15.8,17.5,6.3,18.2,16.2,18.2,9.3-1.3,12.3-3.5l-2.8-4.9s-6.7,4.1-12.2,2ZM283.9,82.6c4.7,0,5.7,6.7,5.7,6.7h-11.3s.9-6.7,5.7-6.7Z"/>
    <path class="cls-4" d="M201,76.6s-3.5,0-7,.7c-3.3.6-6.6,2.9-6.6,2.9l2.6,5.4s3.4-3.2,8.6-3.2,6,7,6,7c-13.6-2.8-20.4,4.2-20.2,11.4,0,3.3.5,6.6,4.3,9.1,11.9,7.9,23.5-3.6,23.5-3.6v-19.1c0-5.7-5.1-10.7-11.3-10.7ZM204.5,105.1s-5.4,2.5-8.8.4c-3.5-2.1-3.1-7.7.2-9.5,3.3-1.8,8.6-.7,8.6-.7v9.7Z"/>
    <path class="cls-4" d="M72.1,40c-37.2,33.7-23.8,44.9-14.9,49.2,8.9,4.3,20.7-1.6,35.6-13.2,14.8-11.6,49.1-33.9,57.2-22.8,8.1,11.1,8.3,33.2-26.4,62.3-34.7,29.1-41.8,12.1-24.7-1.3,17.1-13.3,14-21.4,5.9-22.5-8.5-1.2-15.8.8-23.4,14.6,0,0-11.5,22.3,3.2,28,10.3,4,40.7-8.3,63-30.8,16.4-16.6,28.5-36.4,23.4-62.8-6.6-34.6-61.8-34.5-99-.8Z"/>
  </g>
</svg>